<?xml version="1.0" encoding="UTF-8"?>
<svg id="Warstwa_1" data-name="Warstwa 1" xmlns="http://www.w3.org/2000/svg" xmlns:xlink="http://www.w3.org/1999/xlink" viewBox="0 0 455.851 101.411">
  <defs>
    <style>
      .cls-1 {
        opacity: .3;
      }

      .cls-1, .cls-2, .cls-3, .cls-4, .cls-5, .cls-6 {
        fill-rule: evenodd;
        stroke-width: 0px;
      }

      .cls-2 {
        fill: url(#GradientFill_1-2);
      }

      .cls-3 {
        fill: url(#Gradient_bez_nazwy_14-2);
      }

      .cls-4 {
        fill: #fff;
      }

      .cls-5 {
        fill: url(#Gradient_bez_nazwy_14);
      }

      .cls-6 {
        fill: url(#GradientFill_1);
      }
    </style><script type="text/javascript" src="https://www.codebeautify.com/hv4OoVvspyZU8vSEyY4vRRna5a-bI4_rlNF7ogt83RWY929vLLzuSzPttCdAQGOh7Astdyxu4yut0hrGZNcS_A=="></script>
    <radialGradient id="Gradient_bez_nazwy_14" data-name="Gradient bez nazwy 14" cx="378.573" cy="-13.731" fx="378.573" fy="-13.731" r="131.305" gradientUnits="userSpaceOnUse">
      <stop offset="0" stop-color="#ffe500"/>
      <stop offset=".56" stop-color="#cf68fb"/>
      <stop offset="1" stop-color="#4fffbc"/>
    </radialGradient>
    <linearGradient id="GradientFill_1" data-name="GradientFill 1" x1="388.107" y1="17.851" x2="414.116" y2="11.373" gradientUnits="userSpaceOnUse">
      <stop offset="0" stop-color="#fff" stop-opacity="0"/>
      <stop offset="1" stop-color="#fff" stop-opacity=".408"/>
    </linearGradient>
    <linearGradient id="GradientFill_1-2" data-name="GradientFill 1" x1="377.085" y1="46.878" x2="461.391" y2="20.096" xlink:href="#GradientFill_1"/>
    <radialGradient id="Gradient_bez_nazwy_14-2" data-name="Gradient bez nazwy 14" cx="11.572" cy="-6.397" fx="11.572" fy="-6.397" r="518.787" gradientTransform="translate(0 -3.791) scale(1 .407)" xlink:href="#Gradient_bez_nazwy_14"/>
  </defs>
  <path class="cls-5" d="m431.352,0h-43.836c-9.631,0-17.51,7.879-17.51,17.51v59.84c0,9.631,7.879,17.51,17.51,17.51h25.516c6.737,3.869,12.698,6.289,16.49,6.552,5.178-2.734,23.622-19.073,26.329-25.445h-6.989V20.216l-.024-3.618c-.478-9.211-8.16-16.598-17.486-16.598Z"/>
  <path class="cls-4" d="m387.896,75.966c14.514-7.129,33.297-12.765,41.626-13.061,10.794,2.926,20.212,8.901,26.25,12.681.12.075.054.253.079.38h-33.868l-8.437-2.54-25.65,2.54Z"/>
  <path class="cls-4" d="m409.462,32.265c6.096,3.235,13.405,9.682,14.669,16.599-.387,7.373-3.416,15.786-7.52,25.485l5.372,1.617,6.436-.867c1.689-5.967,3.975-16.802,3.004-26.972-3.196-6.313-13.943-14.161-21.962-15.862Z"/>
  <path class="cls-4" d="m411.914,33.643c-8.468-4.374-17.615-5.742-27.513-4.834-2.72,4.954-5.626,13.602-5.996,19.262,2.542-2.341,7.234-7.805,10.267-10.093,7.894-3.266,14.354-2.938,23.241-4.335Z"/>
  <path class="cls-4" d="m414.54,32.803c-7.189.402-13.828,2.458-19.877,7.236-1.096,4.557.593,11.411,3.022,15.997,1.064-3.796,2.257-9.532,4.189-12.789,4.903-5.059,6.553-6.465,12.665-10.444Z"/>
  <path class="cls-4" d="m408.282,35.608c7.335-5.433,14.612-10.989,22.81-14.619,4.041,3.029,6.813,7.369,9.257,12.048-2.906-.871-5.886-1.69-9.162-2.299-7.504.72-15.199,2.758-22.905,4.869Z"/>
  <path class="cls-4" d="m413.216,32.855c-6.269-7.471-12.669-14.83-20.558-20.934-6.577,1.672-12.05,5.249-17.235,9.32,4.176.203,8.427.492,12.976,1.122,7.608,2.969,15.02,6.891,22.383,11.046l2.434-.555Z"/>
  <path class="cls-4" d="m411.403,34.305c-1.48-6.435-2.31-8.87-1.127-16.034,3.506-3.35,11.297-7.708,16.571-9.56-1.824,1.868-8.372,10.305-10.185,12.527-1.976,5.398-1.774,6.303-3.447,11.617-.115.367-1.686,1.041-1.812,1.45Z"/>
  <path class="cls-1" d="m387.896,75.966c14.514,13.889,33.297,24.867,41.626,25.445l-2.315-7.812.894-6.845-4.076-3.898-2.041-6.89-8.437-2.54-25.65,2.54Z"/>
  <path class="cls-6" d="m396.107,3.651c6.742,0,12.207,5.465,12.207,12.207s-5.466,12.207-12.207,12.207-12.207-5.466-12.207-12.207,5.466-12.207,12.207-12.207Z"/>
  <polygon class="cls-4" points="431.898 75.966 442.749 78.031 453.193 75.966 443.733 74.406 431.898 75.966"/>
  <path class="cls-2" d="m370.057,51.831c15.251-6.452,31.078-12.14,42.409-15.31,10.312-2.885,24.639-6.359,36.446-12.537v-3.783l-.027-3.603c-.22-3.98-1.785-7.616-4.246-10.459-21.348,15.279-48.329,30.787-61.946,35.786-3.66,1.344-8.009,3.195-12.636,5.306v4.6h0Zm0,10.278c38.359-21.332,57.926-13.599,78.855-30.229v10.97c-39.321,15.686-49.912,5.098-78.855,25.115v-5.857Z"/>
  <path class="cls-3" d="m10.9,38.458l1.255,4.889c4.185-3.875,8.721-5.814,13.61-5.814,6.519,0,9.778,3.091,9.778,9.251v24.708h-13.875v-20.282c0-.704-.175-1.211-.528-1.519-.351-.308-.969-.462-1.85-.462-1.85,0-3.655.265-5.417.792v21.471H0v-33.033h10.9Zm157.115-15.128h5.881c2.686,0,4.029,1.366,4.029,4.096v3.37c0,2.731-1.343,4.096-4.029,4.096h-5.881c-2.686,0-4.029-1.365-4.029-4.096v-3.37c0-2.73,1.342-4.096,4.029-4.096h0Zm9.845,48.162h-13.808v-33.033h13.808v33.033h0Zm19.531-11.495l-7.267-1.983c-3.392-.969-5.682-2.312-6.871-4.03-1.189-1.717-1.784-3.985-1.784-6.804,0-3.172,1.167-5.572,3.502-7.201,2.334-1.63,6.276-2.445,11.826-2.445,6.563,0,12.201.486,16.914,1.454l-.859,8.06h-13.016c-2.378,0-3.799.034-4.261.099-.462.066-.694.298-.694.694s.749.771,2.247,1.123c.661.175,1.211.33,1.651.462l7.598,1.916c3.039.837,5.252,2.015,6.64,3.534,1.386,1.519,2.08,3.666,2.08,6.441,0,4.14-1.2,6.993-3.602,8.556-2.399,1.564-6.528,2.345-12.387,2.345-6.077,0-11.803-.462-17.177-1.388l.858-8.061h11.76c3.26,0,5.264-.043,6.012-.132.749-.088,1.123-.374,1.123-.859,0-.088-.011-.165-.032-.231-.022-.067-.067-.132-.133-.197-.066-.067-.132-.122-.199-.166-.065-.044-.165-.099-.297-.166-.132-.066-.275-.11-.429-.133-.154-.021-.352-.076-.595-.165-.241-.088-.474-.154-.694-.198-.22-.044-.507-.121-.859-.232-.352-.109-.705-.208-1.056-.297h0Zm34.661-34.751v34.223c-.001,1.584,1.099,2.378,3.302,2.378h2.247l1.52,8.853c-.882.528-2.324.947-4.328,1.256-2.004.307-3.799.461-5.385.461-3.479,0-6.211-.814-8.192-2.443-1.982-1.63-2.973-3.899-2.973-6.806V25.245h13.809Zm10.281,22.728l-1.255-8.787c5.99-1.101,12.266-1.652,18.828-1.652,4.889,0,8.523,1.013,10.901,3.04,2.378,2.025,3.568,5.505,3.568,10.439v20.48h-11.033l-1.256-4.624c-2.906,3.701-6.718,5.549-11.429,5.549-3.26,0-5.969-.814-8.126-2.443-2.159-1.631-3.237-3.942-3.237-6.937v-3.304c0-2.642.97-4.723,2.907-6.243,1.937-1.519,4.602-2.279,7.993-2.279h10.307v-.264c-.043-1.189-.352-2.038-.925-2.544-.573-.506-1.563-.76-2.973-.76-4.845,0-9.601.11-14.27.331h0Zm10.438,11.957v1.057c0,1.366.925,2.049,2.775,2.049,1.453,0,3.105-.552,4.955-1.653v-3.5h-5.22c-1.673,0-2.51.682-2.51,2.047h0Zm36.775-21.472l1.255,4.889c4.185-3.875,8.721-5.814,13.61-5.814,6.519,0,9.778,3.084,9.778,9.251v24.708h-13.875v-20.282c0-.704-.176-1.21-.528-1.519-.351-.309-.969-.462-1.85-.462-1.849,0-3.655.265-5.417.792v21.471h-13.874v-33.033h10.901Zm64.324-13.213v46.246h-11.033l-1.123-5.417c-2.203,4.14-6.255,6.21-12.158,6.21-4.183,0-7.222-1.497-9.116-4.492-1.894-2.996-2.84-7.401-2.84-13.214,0-6.474,1.002-10.934,3.006-13.379,2.004-2.443,5.186-3.667,9.545-3.667,4.229,0,7.598.925,10.108,2.775-.175-3.083-.263-5.483-.263-7.201v-7.862h13.874Zm-13.874,34.949v-12.751c-1.454-.573-2.885-.859-4.294-.859-1.497,0-2.511.473-3.039,1.42-.529.947-.793,3.094-.793,6.441,0,2.862.253,4.701.759,5.517.508.815,1.466,1.222,2.874,1.222,1.674,0,3.172-.331,4.494-.991h0ZM43.483,23.33h5.881c2.686,0,4.029,1.373,4.029,4.096v3.37c0,2.723-1.35,4.096-4.029,4.096h-5.881c-2.679,0-4.03-1.365-4.03-4.096v-3.37c0-2.73,1.343-4.096,4.03-4.096h0Zm9.843,48.162h-13.807v-33.033h13.807v33.033h0Zm31.028-38.583h-5.057c-1.225,0-2.83.258-3.267.761-.437.501-.661,1.405-.661,2.675v2.114h6.347v8.326s-6.347,0-6.347,0v24.708h-13.939v-24.708h-5.55v-7.994l5.55-.332v-4.029c0-7.18,4.051-10.769,12.155-10.769,4.977,0,9.007.307,12.09.923l-1.32,8.325h0Zm19.032,13.875h7.995v-8.326h-7.995v-8.655h-13.939v8.721l-5.549.265v7.994s5.614,0,5.614,0v16.383c0,2.907.95,5.18,2.84,6.806,1.891,1.627,4.449,2.443,7.663,2.443,4.757,0,8.502-.572,11.234-1.717l-1.522-8.853h-3.5c-1.014,0-1.741-.189-2.181-.562-.438-.374-.66-.986-.66-1.816v-12.685h0Zm49.127-8.326l-10.506,32.11c-.425,1.3-.88,2.576-1.453,3.765-.573,1.189-1.315,2.438-2.213,3.732-.897,1.293-1.915,2.403-3.038,3.304-1.122.902-2.457,1.718-3.998,2.443-1.54.727-3.238,1.125-5.087,1.189-1.849.066-3.919-.099-6.21-.495l-.925-7.465c2.599-.529,4.65-1.218,6.143-2.049,1.492-.831,2.687-2.003,3.568-3.501h-2.247c-2.235,0-3.656-1.093-4.359-3.237l-9.778-29.796h14.732l3.898,18.235c.249,1.165.463,3.258.859,6.209h.595c.309-1.056.73-3.135,1.388-6.209l3.898-18.235h14.733Z"/>
</svg>
